<?xml version="1.0" standalone="no"?>
<!DOCTYPE svg PUBLIC "-//W3C//DTD SVG 20010904//EN"
 "http://www.w3.org/TR/2001/REC-SVG-20010904/DTD/svg10.dtd">
<svg version="1.0" xmlns="http://www.w3.org/2000/svg"
 width="358.000000pt" height="356.000000pt" viewBox="0 0 358.000000 356.000000"
 preserveAspectRatio="xMidYMid meet">

<g transform="translate(0.000000,356.000000) scale(0.100000,-0.100000)"
fill="#000000" stroke="none">
<path d="M1670 2358 c-77 -13 -247 -37 -295 -42 -22 -2 -87 -11 -145 -19 -58
-9 -195 -28 -305 -43 -110 -15 -204 -31 -210 -36 -5 -5 -1 -8 10 -8 32 0 83
-36 101 -72 12 -22 17 -55 16 -104 -1 -79 -16 -120 -56 -150 l-24 -19 38 -132
c21 -72 41 -145 45 -162 l7 -31 -70 0 -70 0 -37 153 c-21 83 -39 153 -40 155
-2 2 -15 0 -29 -4 l-27 -7 1 -126 c1 -69 1 -136 1 -148 -1 -21 -5 -23 -66 -23
-64 0 -65 0 -65 28 0 15 -1 160 -3 322 l-2 295 -40 -3 c-22 -2 -46 -8 -52 -14
-19 -15 -19 -801 0 -815 6 -6 35 -13 63 -17 41 -5 53 -3 58 9 3 8 10 15 17 15
6 0 9 -7 5 -15 -3 -10 2 -16 17 -20 31 -6 169 -26 220 -30 23 -3 116 -16 207
-29 91 -14 264 -39 385 -56 121 -16 273 -37 337 -47 111 -15 125 -15 235 0 65
10 231 33 368 52 138 19 282 39 320 45 111 17 484 68 550 76 33 3 66 11 73 16
9 8 12 102 12 408 0 306 -3 400 -12 408 -7 6 -46 14 -86 17 l-73 8 20 -34 c11
-19 23 -53 27 -75 l6 -42 -43 -7 c-24 -3 -51 -8 -60 -11 -13 -3 -18 5 -22 36
-7 54 -24 73 -56 65 -32 -8 -41 -21 -41 -65 0 -30 11 -45 94 -126 52 -51 104
-110 115 -133 25 -48 28 -138 6 -180 -17 -34 -70 -81 -91 -81 -8 0 -14 -4 -14
-8 0 -4 -31 -5 -70 -1 -107 9 -154 56 -174 176 -6 35 -4 36 71 48 40 6 42 5
48 -22 12 -60 21 -78 45 -90 49 -24 82 25 60 91 -7 23 -41 62 -99 116 -49 44
-96 96 -106 116 -37 78 -12 199 47 233 15 9 28 18 28 21 0 3 -91 18 -202 33
-236 33 -483 68 -688 97 -179 25 -181 25 -173 3 6 -17 5 -17 -14 0 -11 9 -24
16 -29 16 -5 -1 -34 -6 -64 -11z m285 -28 c-3 -5 -12 -10 -18 -10 -7 0 -6 4 3
10 19 12 23 12 15 0z m319 -57 c-5 -5 -12 -12 -16 -18 -4 -6 -8 -2 -8 8 0 9 7
17 17 17 9 0 12 -3 7 -7z m-1062 -55 c22 -6 50 -24 62 -39 13 -15 27 -25 31
-21 4 4 5 2 4 -3 -1 -6 3 -36 10 -69 9 -39 12 -117 9 -240 -4 -203 -12 -235
-75 -283 -28 -22 -47 -27 -111 -30 -104 -6 -156 19 -192 92 -24 48 -25 56 -25
255 0 211 6 248 44 294 42 49 156 70 243 44z m519 -24 c49 -29 72 -76 72 -143
0 -68 -22 -114 -62 -132 l-29 -13 37 -17 c51 -22 74 -73 74 -159 0 -70 -15
-110 -55 -147 -38 -36 -73 -43 -214 -43 l-134 0 0 339 0 340 53 3 c98 6 224
-8 258 -28z m492 8 c23 -15 42 -39 57 -73 20 -48 21 -63 18 -262 -3 -203 -4
-214 -27 -254 -36 -63 -89 -86 -188 -82 -79 4 -92 9 -140 58 -36 37 -43 83
-43 289 -1 251 15 304 105 338 58 21 172 14 218 -14z m477 -33 l0 -48 -52 -3
-53 -3 -3 -287 -2 -288 -70 0 -70 0 0 290 0 290 -50 0 -50 0 0 50 0 49 138 3
c75 2 154 1 175 -1 l37 -3 0 -49z m39 -236 c2 -2 -3 -3 -11 -3 -9 0 -19 7 -22
16 -6 15 -4 15 11 3 10 -7 20 -15 22 -16z m-912 -395 c-3 -8 -6 -5 -6 6 -1 11
2 17 5 13 3 -3 4 -12 1 -19z m-1087 -92 c0 -2 -8 -10 -17 -17 -16 -13 -17 -12
-4 4 13 16 21 21 21 13z m790 -6 c0 -5 -4 -10 -10 -10 -5 0 -10 5 -10 10 0 6
5 10 10 10 6 0 10 -4 10 -10z m-149 -33 c-13 -13 -26 -3 -16 12 3 6 11 8 17 5
6 -4 6 -10 -1 -17z m649 -16 c0 -14 6 -17 25 -13 27 5 36 -8 38 -55 1 -16 6
-31 10 -34 5 -4 5 -9 -1 -13 -6 -3 -15 10 -22 31 -6 21 -13 44 -15 50 -8 26
-35 1 -35 -33 0 -19 -4 -34 -10 -34 -6 0 -10 27 -10 60 0 33 4 60 10 60 6 0
10 -8 10 -19z m-606 1 c3 -5 -1 -9 -9 -9 -8 0 -12 4 -9 9 3 4 7 8 9 8 2 0 6
-4 9 -8z m556 -4 c0 -7 -5 -20 -10 -28 -7 -11 -12 -12 -21 -3 -17 17 -39 4
-39 -22 0 -25 21 -38 47 -28 11 4 14 3 9 -5 -9 -16 -49 -15 -64 0 -7 7 -12 21
-12 33 0 29 19 45 52 45 15 0 28 5 28 10 0 6 2 10 5 10 3 0 5 -6 5 -12z
m-1337 -39 c-3 -10 -9 -19 -14 -19 -5 0 -5 8 -2 17 5 13 2 15 -12 10 -15 -6
-16 -5 -6 7 17 20 40 10 34 -15z m891 16 c4 -12 2 -13 -13 -6 -18 10 -31 6
-31 -10 0 -4 10 -9 23 -11 14 -2 22 -10 22 -23 0 -15 -8 -21 -32 -23 -19 -2
-33 1 -33 8 0 6 10 8 25 4 16 -4 25 -2 25 5 0 6 -11 16 -25 21 -24 9 -32 29
-18 43 12 13 51 7 57 -8z m116 -4 c15 -29 13 -31 -25 -31 -19 0 -35 -4 -35 -9
0 -13 27 -21 47 -14 11 4 14 3 9 -5 -9 -16 -49 -15 -64 0 -7 7 -12 21 -12 33
0 44 60 63 80 26z m108 7 c7 -7 12 -26 12 -44 0 -31 -2 -32 -37 -31 -31 2 -38
6 -38 22 0 14 8 21 28 23 15 2 27 8 27 13 0 10 -13 13 -44 9 -11 -1 -15 3 -12
9 9 15 49 14 64 -1z m110 -6 c2 -7 0 -12 -5 -11 -24 4 -33 -4 -33 -31 0 -16
-4 -30 -10 -30 -5 0 -10 20 -10 44 0 42 1 45 27 43 14 -1 28 -8 31 -15z m132
-22 c0 -5 -5 -10 -11 -10 -5 0 -7 5 -4 10 3 6 8 10 11 10 2 0 4 -4 4 -10z
m-1200 -30 c0 -5 -5 -10 -11 -10 -5 0 -7 5 -4 10 3 6 8 10 11 10 2 0 4 -4 4
-10z"/>
<path d="M1080 2111 c-6 -12 -10 -105 -10 -233 0 -240 3 -252 59 -246 55 5 63
44 59 274 -2 143 -6 195 -17 207 -19 24 -78 22 -91 -2z"/>
<path d="M1560 2041 l0 -91 44 0 c56 0 76 24 76 91 0 55 -18 75 -78 85 l-42 7
0 -92z"/>
<path d="M1560 1741 l0 -109 43 4 c29 3 49 13 66 31 21 24 23 33 17 87 -7 73
-28 96 -87 96 l-39 0 0 -109z"/>
<path d="M2056 2108 c-13 -19 -16 -58 -16 -228 0 -233 5 -254 63 -248 52 5 57
28 57 253 0 223 -5 245 -60 245 -18 0 -34 -8 -44 -22z"/>
<path d="M1603 1363 c-22 -8 -14 -23 12 -23 14 0 25 4 25 9 0 11 -21 19 -37
14z"/>
<path d="M1705 1320 c-8 -12 20 -24 35 -15 5 3 10 10 10 16 0 12 -37 12 -45
-1z"/>
<path d="M580 2031 l0 -101 39 0 c24 0 48 8 65 21 23 18 26 28 26 78 0 75 -14
92 -78 99 l-52 5 0 -102z"/>
</g>
</svg>
